<svg width="512" height="512" viewBox="0 0 512 512" fill="none" xmlns="http://www.w3.org/2000/svg">
<path d="M433.92 209.92C433.92 212.552 433.778 215.183 433.564 217.813C430.667 275.111 396.444 389.191 220.587 410.311C176.071 409.173 135.04 394.098 101.76 369.138C94.7911 364.444 76.0889 354.56 82.0623 342.898C88.0356 331.236 111.004 340.551 112.284 340.836C112.996 341.049 113.707 341.262 114.347 341.618C153.742 354.987 196.409 355.484 226.204 355.484C255.929 355.484 349.938 332.302 350.222 215.111V214.613C350.222 214.044 350.222 213.404 350.364 212.836C351.502 192.071 367.502 175.36 387.982 173.298C389.333 173.156 390.756 173.084 392.249 173.084C393.6 173.084 394.951 173.156 396.231 173.298C415.858 175.147 431.573 190.436 433.92 209.92Z" fill="#EA5A47" stroke="#EA5A47" stroke-width="2" stroke-miterlimit="10" stroke-linecap="round" stroke-linejoin="round"/>
<path d="M433.564 217.813C433.422 220.658 433.138 223.431 432.782 226.204C420.978 329.884 333.013 410.453 226.204 410.453C224.284 410.453 152.96 397.031 151.111 396.889C317.114 422.293 422.665 310.096 403.945 226.113C415.749 229.313 423.893 222.009 433.564 217.813Z" fill="#D22F27" stroke="#D22F27" stroke-width="2" stroke-miterlimit="10" stroke-linecap="round" stroke-linejoin="round"/>
<path d="M345.639 202.185C342.594 208.11 348.06 214.61 354.44 212.694C365.108 209.49 378.694 208.148 384.996 218.785C393.791 233.63 422.96 222.549 435.046 217.123C438.322 215.653 440.115 212.088 439.216 208.612C436.246 197.119 425.996 173.055 392.238 173.055C365.966 173.055 352.363 189.103 345.639 202.185Z" fill="#B1CC33"/>
<path d="M435.058 217.102C425.813 221.298 406.613 228.693 394.169 225.351C437.831 205.084 392.249 173.084 392.249 173.084C426.027 173.084 436.267 197.12 439.182 208.64C440.107 212.053 438.329 215.68 435.058 217.102Z" fill="#5C9E31" stroke="#5C9E31" stroke-width="2" stroke-miterlimit="10" stroke-linecap="round" stroke-linejoin="round"/>
<path d="M392.763 173.055C392.763 173.055 408.243 80 322.305 80" stroke="black" stroke-width="8" stroke-miterlimit="10" stroke-linecap="round"/>
<path d="M220.587 410.311C220.231 410.382 219.947 410.382 219.591 410.453" stroke="black" stroke-width="2" stroke-miterlimit="10" stroke-linejoin="round"/>
<path d="M427.635 254.243C404.635 344.057 323.192 410.463 226.189 410.463C179.523 410.463 136.481 395.134 101.747 369.158C94.7727 364.419 76.0726 354.547 82.0502 342.874C88.0285 331.201 111.034 340.539 112.317 340.841C112.997 341.067 113.676 341.294 114.356 341.596C153.773 354.961 196.437 355.489 226.188 355.489C253.361 355.489 334.138 336.151 348.166 243.513" stroke="black" stroke-width="8" stroke-miterlimit="10" stroke-linecap="round" stroke-linejoin="round"/>
<path d="M345.639 202.185C342.594 208.11 348.06 214.61 354.44 212.694C365.108 209.49 378.694 208.148 384.996 218.785C393.791 233.63 422.96 222.549 435.046 217.123C438.322 215.653 440.115 212.088 439.216 208.612C436.246 197.119 425.996 173.055 392.238 173.055C365.966 173.055 352.363 189.103 345.639 202.185Z" stroke="black" stroke-width="2" stroke-miterlimit="10" stroke-linejoin="round"/>
<path d="M435.058 217.102C434.56 217.316 434.062 217.529 433.565 217.813C423.893 222.009 405.974 228.551 394.169 225.351C390.329 224.356 387.058 222.293 384.996 218.809C378.667 208.142 365.085 209.493 354.418 212.693C352.996 213.12 351.573 213.12 350.365 212.836C346.027 211.698 343.325 206.791 345.671 202.169C352 189.796 364.445 174.862 387.982 173.298C389.333 173.156 390.756 173.084 392.249 173.084C393.6 173.084 394.951 173.156 396.231 173.298C426.809 175.004 436.409 197.618 439.182 208.64C440.107 212.053 438.329 215.68 435.058 217.102Z" stroke="black" stroke-width="8" stroke-miterlimit="10" stroke-linejoin="round"/>
</svg>
